<?xml version="1.0" encoding="utf-8"?>
<!-- Generator: Adobe Illustrator 23.0.3, SVG Export Plug-In . SVG Version: 6.00 Build 0)  -->
<svg version="1.1" id="Layer_1" xmlns="http://www.w3.org/2000/svg" xmlns:xlink="http://www.w3.org/1999/xlink" x="0px" y="0px"
	 viewBox="0 0 848 341" style="enable-background:new 0 0 848 341;" xml:space="preserve">
<style type="text/css">
	.st0{fill:#FFFFFF;stroke:#000000;}
	.st1{fill:none;stroke:#000000;stroke-miterlimit:10;}
	.st2{stroke:#000000;stroke-miterlimit:10;}
	.st3{fill:none;}
	.st4{font-family:'ArialMT';}
	.st5{font-size:12px;}
	.st6{fill:#FFFFFF;stroke:#000000;stroke-miterlimit:10;}
	.st7{enable-background:new    ;}
	.st8{font-size:48px;}
</style>
<g>
	<rect x="190.5" y="0.5" pointer-events="all" class="st0" width="480" height="340"/>
	<path pointer-events="stroke" class="st1" d="M670.5,40.5h133.6"/>
	<path pointer-events="all" class="st2" d="M809.4,40.5l-7,3.5l1.8-3.5l-1.8-3.5L809.4,40.5z"/>
	<rect x="647.5" y="10.5" pointer-events="all" class="st3" width="200" height="20"/>
	<g transform="translate(-0.5 -0.5)">
		<text transform="matrix(1 0 0 1 689.8203 24.5)" class="st4 st5">ANODE_MSB (7 bits)</text>
	</g>
	<path pointer-events="stroke" class="st1" d="M670.5,100.5h133.6"/>
	<path pointer-events="all" class="st2" d="M809.4,100.5l-7,3.5l1.8-3.5l-1.8-3.5L809.4,100.5z"/>
	<rect x="669.5" y="70.5" pointer-events="all" class="st3" width="150" height="20"/>
	<g transform="translate(-0.5 -0.5)">
		<text transform="matrix(1 0 0 1 688.4814 84.5)" class="st4 st5">ANODE_LSB (7 bits)</text>
	</g>
	<path pointer-events="stroke" class="st1" d="M671.5,180.5h132.6"/>
	<path pointer-events="all" class="st2" d="M809.4,180.5l-7,3.5l1.8-3.5l-1.8-3.5L809.4,180.5z"/>
	<rect x="680.5" y="150.5" pointer-events="all" class="st3" width="110" height="20"/>
	<g transform="translate(-0.5 -0.5)">
		<text transform="matrix(1 0 0 1 695.1523 164.5)" class="st4 st5">UP_LED (1 bit)</text>
	</g>
	<path pointer-events="stroke" class="st1" d="M669.5,220.6l133.7-0.1"/>
	<path pointer-events="all" class="st2" d="M808.4,220.5l-7,3.5l1.8-3.5l-1.8-3.5L808.4,220.5z"/>
	<rect x="679.6" y="190.5" pointer-events="all" class="st3" width="110" height="20"/>
	<g transform="translate(-0.5 -0.5)">
		<text transform="matrix(1 0 0 1 683.4912 204.5)" class="st4 st5">DOWN_LED (1 bit)</text>
	</g>
	<path pointer-events="stroke" class="st1" d="M670.5,300.6l133.7-0.1"/>
	<path pointer-events="all" class="st2" d="M809.4,300.5l-7,3.5l1.8-3.5l-1.8-3.5L809.4,300.5z"/>
	<rect x="679.6" y="269.5" pointer-events="all" class="st3" width="110" height="20"/>
	<g transform="translate(-0.5 -0.5)">
		<text transform="matrix(1 0 0 1 693.4961 283.5)" class="st4 st5">BUZZER (1 bit)</text>
	</g>
	<path pointer-events="stroke" class="st1" d="M50.5,36.5l132.7,0.1"/>
	<path pointer-events="all" class="st2" d="M188.4,36.6l-7,3.5l1.8-3.5l-1.7-3.5L188.4,36.6z"/>
	<rect x="50.5" y="3.6" pointer-events="all" class="st3" width="140" height="20"/>
	<g transform="translate(-0.5 -0.5)">
		<text transform="matrix(1 0 0 1 58.4902 17.5)" class="st4 st5">INPUT_FLOOR (4 bits)</text>
	</g>
	<path pointer-events="stroke" class="st1" d="M50.5,89.5h40c6.7,0,11.7,0,15,0h2.5c1.7,0,5.8,0,12.5,0h30c6.7,0,13.3,0,20,0.1
		l14.6,0.2"/>
	<path pointer-events="all" class="st2" d="M190.3,89.9l-7.1,3.4l1.8-3.5l-1.7-3.5L190.3,89.9z"/>
	<rect x="60.5" y="59.5" pointer-events="all" class="st3" width="120" height="20"/>
	<g transform="translate(-0.5 -0.5)">
		<text transform="matrix(1 0 0 1 67.1504 73.5)" class="st4 st5">CLK_BOARD (1 bit)</text>
	</g>
	<path pointer-events="all" class="st6" d="M190.5,79.5l20,15l-20,15V79.5z"/>
	<path pointer-events="stroke" class="st1" d="M50.5,141.8l132.7,0.1"/>
	<path pointer-events="all" class="st2" d="M188.4,141.9l-7,3.5l1.8-3.5l-1.7-3.5L188.4,141.9z"/>
	<rect x="50.5" y="109.8" pointer-events="all" class="st3" width="140" height="20"/>
	<g transform="translate(-0.5 -0.5)">
		<text transform="matrix(1 0 0 1 83.6006 123.5)" class="st4 st5">RESET (1 bit)</text>
	</g>
	<path pointer-events="stroke" class="st1" d="M50.5,180.5l134.6-0.5"/>
	<path pointer-events="all" class="st2" d="M190.3,180l-7,3.5l1.7-3.5l-1.8-3.5L190.3,180z"/>
	<path pointer-events="stroke" class="st1" d="M50.5,326.5l133.6,0.4"/>
	<path pointer-events="all" class="st2" d="M189.4,326.9l-7,3.5l1.8-3.5l-1.7-3.5L189.4,326.9z"/>
	<rect x="40.5" y="300.5" pointer-events="all" class="st3" width="150" height="20"/>
	<g transform="translate(-0.5 -0.5)">
		<text transform="matrix(1 0 0 1 55.0733 307.3511)" class="st7"><tspan x="0" y="0" class="st4 st5">PERSON_IN_DOOR</tspan><tspan x="40.7" y="14.4" class="st4 st5">(1 bit)</tspan></text>
	</g>
	<rect x="40.5" y="190.5" pointer-events="all" class="st3" width="160" height="20"/>
	<g transform="translate(-0.5 -0.5)">
		<text transform="matrix(1 0 0 1 56.5859 204.5)" class="st4 st5">SPEED_SELECT (1 bit)</text>
	</g>
	<rect x="20.5" y="150.5" pointer-events="all" class="st3" width="200" height="20"/>
	<g transform="translate(-0.5 -0.5)">
		<text transform="matrix(1 0 0 1 57.1514 164.5)" class="st4 st5">WRITE_ENABLE (1 bit)</text>
	</g>
	<path pointer-events="stroke" class="st1" d="M50.5,220.5l132.2,0"/>
	<path pointer-events="all" class="st2" d="M187.9,220.5l-7,3.5l1.8-3.5l-1.8-3.5L187.9,220.5z"/>
	<path pointer-events="stroke" class="st1" d="M50.5,280.5l131.2-0.2"/>
	<path pointer-events="all" class="st2" d="M187,280.3l-7,3.5l1.7-3.5l-1.8-3.5L187,280.3z"/>
	<rect x="0.5" y="249.5" pointer-events="all" class="st3" width="240" height="20"/>
	<g transform="translate(-0.5 -0.5)">
		<text transform="matrix(1 0 0 1 38.0752 257.3723)" class="st7"><tspan x="0" y="0" class="st4 st5">MAX_WEIGHT_REACHED</tspan><tspan x="57.7" y="14.4" class="st4 st5">(1 bit)</tspan></text>
	</g>
	<rect x="224.5" y="90.5" pointer-events="all" class="st3" width="420" height="140"/>
	<g transform="translate(-0.5 -0.5)">
		<text transform="matrix(1 0 0 1 306.9609 171)" class="st7"><tspan x="0" y="0" class="st4 st8">ELEVATOR</tspan><tspan x="-8" y="57.6" class="st4 st8">BLACK BOX</tspan></text>
	</g>
</g>
<a xlink:href="https://www.diagrams.net/doc/faq/svg-export-text-problems"  transform="translate(0,-5)">
</a>
</svg>
